<mxfile host="app.diagrams.net" modified="2023-08-12T15:48:50.276Z" agent="Mozilla/5.0 (Macintosh; Intel Mac OS X 10_15_7) AppleWebKit/537.36 (KHTML, like Gecko) Chrome/115.0.0.0 Safari/537.36" version="21.6.6" etag="o43l6IS_v2FHP0ofruuU" type="github">
  <diagram name="Page-1" id="rOVUSPsnNutSrZuXD4xW">
    <mxGraphModel>
      <root>
        <mxCell id="0" />
        <mxCell id="1" parent="0" />
      </root>
    </mxGraphModel>
  </diagram>
</mxfile>
